{"title":"Breakaway.2011.DvDRip.XviD.Ac3.Feel-Free","uid":7000332,"size":1550116654,"categoryP":"video","categoryS":"movies","magnet":"?xt=urn:btih:c04319118c7ebefeffeacbc1f3f34dc3eeb54253&amp;dn=Breakaway.2011.DvDRip.XviD.Ac3.Feel-Free&amp;tr=udp%3A%2F%2Ftracker.openbittorrent.com%3A80&amp;tr=udp%3A%2F%2Fopen.demonii.com%3A1337&amp;tr=udp%3A%2F%2Ftracker.coppersurfer.tk%3A6969&amp;tr=udp%3A%2F%2Fexodus.desync.com%3A6969","seeders":1,"leechers":1,"uploader":null,"files":9,"time":1328032895,"description":"\nGenre: Comedy | Drama | Sport\nLanguage:English\nIMDb: &lt;a href=&quot; http://www.imdb.com/title/tt1736552/&quot; rel=&quot;nofollow&quot; target=&quot;_NEW&quot;&gt; http://www.imdb.com/title/tt1736552/&lt;/a&gt;\nSource:DVD Thanks!\nEncoder:Tony &lt;a href=&quot;\nhttp://imghost.tehnicadmin.ro/images/48316535902679703496.png&quot; rel=&quot;nofollow&quot; target=&quot;_NEW&quot;&gt;\nhttp://imghost.tehnicadmin.ro/images/48316535902679703496.png&lt;/a&gt; &lt;a href=&quot;\nhttp://imghost.tehnicadmin.ro/images/90521655888004468175.png&quot; rel=&quot;nofollow&quot; target=&quot;_NEW&quot;&gt;\nhttp://imghost.tehnicadmin.ro/images/90521655888004468175.png&lt;/a&gt;\nFormat : AVI\nFormat/Info : Audio Video Interleave\nFile size : 1.44 GiB\nDuration : 1h 40mn\nOverall bit rate : 2 054 Kbps\n\nVideo\nID : 0\nFormat : MPEG-4 Visual\nFormat profile : Advanced Simple@L5\nFormat settings, BVOP : 1\nFormat settings, QPel : No\nFormat settings, GMC : No warppoints\nFormat settings, Matrix : Default (H.263)\nCodec ID : XVID\nCodec ID/Hint : XviD\nDuration : 1h 40mn\nBit rate : 1 597 Kbps\nWidth : 640 pixels\nHeight : 344 pixels\nDisplay aspect ratio : 1.860\nFrame rate : 23.976 fps\nColor space : YUV\nChroma subsampling : 4:2:0\nBit depth : 8 bits\nScan type : Progressive\nCompression mode : Lossy\nBits/(Pixel*Frame) : 0.302\nStream size : 1.12 GiB (78%)\nWriting library : XviD 1.2.1\n\nAudio\nID : 1\nFormat : AC-3\nFormat/Info : Audio Coding 3\nMode extension : CM (complete main)\nCodec ID : 2000\nDuration : 1h 40mn\nBit rate mode : Constant\nBit rate : 448 Kbps\nChannel(s) : 6 channels\nChannel positions : Front: L C R, Side: L R, LFE\nSampling rate : 48.0 KHz\nBit depth : 16 bits\nCompression mode : Lossy\nStream size : 322 MiB (22%)\nAlignment : Aligned on interleaves\nInterleave, duration : 42 ms (1.00 video frame)\nInterleave, preload duration : 512 ms\n\n\nPlot:\nAn ethnic Canadian hockey player struggles against traditional family values and discrimination from mainstream hockey players.\n","torrent":{"xt":"urn:btih:c04319118c7ebefeffeacbc1f3f34dc3eeb54253","amp;dn":"Breakaway.2011.DvDRip.XviD.Ac3.Feel-Free","amp;tr":["udp%3A%2F%2Ftracker.openbittorrent.com%3A80","udp%3A%2F%2Fopen.demonii.com%3A1337","udp%3A%2F%2Ftracker.coppersurfer.tk%3A6969","udp%3A%2F%2Fexodus.desync.com%3A6969"],"infoHash":"c04319118c7ebefeffeacbc1f3f34dc3eeb54253","infoHashBuffer":{"type":"Buffer","data":[192,67,25,17,140,126,190,254,255,234,203,193,243,243,77,195,238,181,66,83]},"announce":[],"urlList":[]}}